# xmcd CD database file
#
# Track frame offsets:
#	150
#	27191
#	59272
#	90785
#	123532
#	144351
#	160283
#	170023
#	189221
#	221425
#	253200
#	280076
#
# Disc length: 3929 seconds
#
# Revision: 0
# Processed by: cddbd v1.5.1PL2 Copyright (c) Steve Scherf et al.
# Submitted via: CDex 1.51
#
DISCID=a10f570c
DTITLE=Jay Epstein - Long Ago
DYEAR=1996
DGENRE=Jazz
TTITLE0=Street of Dreams
TTITLE1=Orion
TTITLE2=Long Ago (And Far Away)
TTITLE3=Beautiful Love
TTITLE4=Maybe September
TTITLE5=Balloons over Pain
TTITLE6=Keep the Home Fires Burning (The Dark Suite)
TTITLE7=Lost
TTITLE8=You and the Night and the Music
TTITLE9=Heyoke
TTITLE10=Solar
TTITLE11=I'll Be Seeing You
EXTD=YEAR: 1996
EXTT0=
EXTT1=
EXTT2=
EXTT3=
EXTT4=
EXTT5=
EXTT6=
EXTT7=
EXTT8=
EXTT9=
EXTT10=
EXTT11=
PLAYORDER=
